<svg xmlns="http://www.w3.org/2000/svg" viewBox="0 0 1885 1119.5"><defs><style>.a{fill:#dadada;}.b{fill:none;stroke:#dadada;}</style></defs><g transform="translate(-100 -644)"><rect class="a" width="34" height="152" transform="translate(1651 998)"/><rect class="a" width="34" height="163" transform="translate(1734 870)"/><line class="b" x1="1" y2="717" transform="translate(1750.5 1033.5)"/><rect class="a" width="34" height="67" transform="translate(1822 747)"/><line class="b" y2="936" transform="translate(1839.5 814.5)"/><rect class="a" width="34" height="41" transform="translate(1891 699)"/><line class="b" y2="1023" transform="translate(1908.5 740.5)"/><rect class="a" width="34" height="34.057" transform="translate(100 1587.942)"/><line class="b" x1="1" y2="128" transform="translate(116.5 1622.5)"/><rect class="a" width="34" height="43.057" transform="translate(176 1555.942)"/><line class="b" y2="151" transform="translate(193.5 1599.5)"/><rect class="a" width="34" height="18.057" transform="translate(253 1521.942)"/><line class="b" y2="210" transform="translate(270.5 1540.5)"/><rect class="a" width="34" height="58.057" transform="translate(330 1540.942)"/><line class="b" y2="146" transform="translate(347.5 1604.5)"/><rect class="a" width="34" height="9.057" transform="translate(407 1572.942)"/><line class="b" y2="168" transform="translate(424.5 1582.5)"/><rect class="a" width="34" height="43.057" transform="translate(484 1540.942)"/><line class="b" y2="168" transform="translate(501.5 1582.5)"/><rect class="a" width="34" height="53.057" transform="translate(557 1534.942)"/><line class="b" x2="4" y2="163" transform="translate(574.5 1587.5)"/><rect class="a" width="34" height="34.057" transform="translate(638 1521.942)"/><line class="b" y2="195" transform="translate(655.5 1555.5)"/><rect class="a" width="34" height="78.057" transform="translate(715 1495.942)"/><line class="b" y2="178" transform="translate(732.5 1572.5)"/><rect class="a" width="34" height="59" transform="translate(792 1476)"/><line class="b" y2="216" transform="translate(809.5 1534.5)"/><rect class="a" width="34" height="81" transform="translate(869 1425)"/><line class="b" y2="244" transform="translate(886.5 1506.5)"/><rect class="a" width="34" height="33" transform="translate(946 1403)"/><line class="b" y2="314" transform="translate(963.5 1436.5)"/><rect class="a" width="34" height="41" transform="translate(1024 1362)"/><line class="b" x1="1" y2="347" transform="translate(1040.5 1403.5)"/><rect class="a" width="34" height="56" transform="translate(1101 1306)"/><line class="b" x1="1" y2="388" transform="translate(1117.5 1362.5)"/><rect class="a" width="34" height="32" transform="translate(1182 1410)"/><line class="b" x1="5" y2="308" transform="translate(1194.5 1442.5)"/><rect class="a" width="34" height="167.164" transform="translate(1262 1294.5)"/><line class="b" y2="249.21" transform="translate(1279.5 1461.29)"/><rect class="a" width="34" height="56.046" transform="translate(1331 1430.5)"/><line class="b" y2="224.124" transform="translate(1348.5 1486.375)"/><rect class="a" width="34" height="107" transform="translate(1408 1392)"/><line class="b" y2="256" transform="translate(1425.5 1494.5)"/><rect class="a" width="34" height="69" transform="translate(1486 1334)"/><line class="b" x1="1" y2="347" transform="translate(1502.5 1403.5)"/><rect class="a" width="34" height="143" transform="translate(1573 1249)"/><line class="b" y2="358" transform="translate(1590.5 1392.5)"/><line class="b" y2="600" transform="translate(1668.5 1150.5)"/><rect class="a" width="34" height="76" transform="translate(1951 644)"/><line class="b" y2="990" transform="translate(1968.5 720.5)"/></g></svg>