<svg xmlns="http://www.w3.org/2000/svg" viewBox="0 0 1885 1119.5"><defs><style>.a{fill:#dadada}.b{fill:none;stroke:#dadada}</style></defs><g transform="translate(-100 -644)"><rect width="34" height="152" class="a" transform="translate(1651 998)"/><rect width="34" height="163" class="a" transform="translate(1734 870)"/><line x1="1" y2="717" class="b" transform="translate(1750.5 1033.5)"/><rect width="34" height="67" class="a" transform="translate(1822 747)"/><line y2="936" class="b" transform="translate(1839.5 814.5)"/><rect width="34" height="41" class="a" transform="translate(1891 699)"/><line y2="1023" class="b" transform="translate(1908.5 740.5)"/><rect width="34" height="34.057" class="a" transform="translate(100 1587.942)"/><line x1="1" y2="128" class="b" transform="translate(116.5 1622.5)"/><rect width="34" height="43.057" class="a" transform="translate(176 1555.942)"/><line y2="151" class="b" transform="translate(193.5 1599.5)"/><rect width="34" height="18.057" class="a" transform="translate(253 1521.942)"/><line y2="210" class="b" transform="translate(270.5 1540.5)"/><rect width="34" height="58.057" class="a" transform="translate(330 1540.942)"/><line y2="146" class="b" transform="translate(347.5 1604.5)"/><rect width="34" height="9.057" class="a" transform="translate(407 1572.942)"/><line y2="168" class="b" transform="translate(424.5 1582.5)"/><rect width="34" height="43.057" class="a" transform="translate(484 1540.942)"/><line y2="168" class="b" transform="translate(501.5 1582.5)"/><rect width="34" height="53.057" class="a" transform="translate(557 1534.942)"/><line x2="4" y2="163" class="b" transform="translate(574.5 1587.5)"/><rect width="34" height="34.057" class="a" transform="translate(638 1521.942)"/><line y2="195" class="b" transform="translate(655.5 1555.5)"/><rect width="34" height="78.057" class="a" transform="translate(715 1495.942)"/><line y2="178" class="b" transform="translate(732.5 1572.5)"/><rect width="34" height="59" class="a" transform="translate(792 1476)"/><line y2="216" class="b" transform="translate(809.5 1534.5)"/><rect width="34" height="81" class="a" transform="translate(869 1425)"/><line y2="244" class="b" transform="translate(886.5 1506.5)"/><rect width="34" height="33" class="a" transform="translate(946 1403)"/><line y2="314" class="b" transform="translate(963.5 1436.5)"/><rect width="34" height="41" class="a" transform="translate(1024 1362)"/><line x1="1" y2="347" class="b" transform="translate(1040.5 1403.5)"/><rect width="34" height="56" class="a" transform="translate(1101 1306)"/><line x1="1" y2="388" class="b" transform="translate(1117.5 1362.5)"/><rect width="34" height="32" class="a" transform="translate(1182 1410)"/><line x1="5" y2="308" class="b" transform="translate(1194.5 1442.5)"/><rect width="34" height="167.164" class="a" transform="translate(1262 1294.5)"/><line y2="249.21" class="b" transform="translate(1279.5 1461.29)"/><rect width="34" height="56.046" class="a" transform="translate(1331 1430.5)"/><line y2="224.124" class="b" transform="translate(1348.5 1486.375)"/><rect width="34" height="107" class="a" transform="translate(1408 1392)"/><line y2="256" class="b" transform="translate(1425.5 1494.5)"/><rect width="34" height="69" class="a" transform="translate(1486 1334)"/><line x1="1" y2="347" class="b" transform="translate(1502.5 1403.5)"/><rect width="34" height="143" class="a" transform="translate(1573 1249)"/><line y2="358" class="b" transform="translate(1590.5 1392.5)"/><line y2="600" class="b" transform="translate(1668.5 1150.5)"/><rect width="34" height="76" class="a" transform="translate(1951 644)"/><line y2="990" class="b" transform="translate(1968.5 720.5)"/></g></svg>