<svg xmlns="http://www.w3.org/2000/svg" viewBox="0 0 199.715 84.242"><defs><style>.a{fill:#627eea;}.a,.f{stroke:#404040;stroke-width:3px;}.b{fill:#c5c6dd;}.c,.f{fill:#fff;}.d{fill:#939dc3;}.e{fill:#ccd1d9;}.g{fill:gray;font-size:17px;font-family:Montserrat-SemiBold, Montserrat;font-weight:600;}</style></defs><g transform="translate(-1157.1 -321.563)"><g transform="translate(1158.6 351.55)"><ellipse class="a" cx="26.377" cy="26.377" rx="26.377" ry="26.377"/><g transform="translate(14.837 6.594)"><path class="b" d="M7.5,0V14.623l12.359,5.523Z" transform="translate(4.863)"/><path class="c" d="M12.361,0,0,20.145l12.361-5.523Z"/><path class="b" d="M7.5,20.791v9.936l12.368-17.11Z" transform="translate(4.863 8.831)"/><path class="c" d="M12.361,30.726V20.789L0,13.616Z" transform="translate(0 8.831)"/><path class="d" d="M7.5,21.568l12.359-7.176L7.5,8.872Z" transform="translate(4.863 5.754)"/><path class="e" d="M0,14.391l12.361,7.176V8.872Z" transform="translate(0 5.754)"/></g></g><g transform="translate(-9 12)"><path class="f" d="M7.117,46.186q-.126.1-.258.2l-1.374,1.04S6.1,46.959,7.117,46.186Zm.8-12.7H5a5,5,0,0,1-5-5V5A5,5,0,0,1,5,0H133.815a5,5,0,0,1,5,5V28.483a5,5,0,0,1-5,5H23.858c-4.215,3.2-13.083,9.926-16.741,12.7C12.179,42.11,9.8,36.487,7.914,33.483Z" transform="translate(1225.5 311.063)"/><text class="g" transform="translate(1236 333)"><tspan x="0" y="0">should I sell?</tspan></text></g></g></svg>