<svg xmlns="http://www.w3.org/2000/svg" viewBox="0 0 145.25 34.439"><defs><style>.a{fill:#0ecbb1;}</style></defs><path class="a" d="M1803.24,6.384,1807.99,0h-12.534L1790,7.3a9.057,9.057,0,0,1,4.429-.917h8.809Z" transform="translate(-1662.74)"/><path class="a" d="M126.443,0H72.986L57.971,21.5,46.8,5.567C44.427,2.026,39.948,0,34.012,0H17.724V.007C7.536.164,0,7.294,0,17.219c0,10.039,7.707,17.22,18.023,17.22,5.211,0,9.619-1.692,12.733-4.827l-3.974-5.638a10.608,10.608,0,0,1-8.332,3.9A10.217,10.217,0,0,1,7.792,17.219,10.183,10.183,0,0,1,17.952,6.576H33.628c4.785,0,7.152,1.991,7.152,5.709,0,3.676-2.417,5.9-7.209,5.9H29.846L40.922,33.856H49.34L41.747,22.971A11.278,11.278,0,0,0,47,18.627l6.512,9.242L49.34,33.856h8.915L77.522,6.384h4.443c4.785,0,7.209,2.176,7.209,5.9,0,3.676-2.417,5.851-7.209,5.851H76.292l-4.685,6.384H82.4c9.043,0,14.7-4.692,14.7-12.235a12.21,12.21,0,0,0-1.408-5.9h7.593V33.856l7.835-10.067V6.384h10.344Z"/><path class="a" d="M1661.87,137.387c-3.711-.846-6.91-1.578-6.91-3.91A3.507,3.507,0,0,1,1655,133l-5.3,7.1c2.432,2.161,6.143,3.029,9.377,3.775,3.718.86,6.925,1.607,6.925,3.974,0,2.119-2.161,3.285-6.079,3.285a19.26,19.26,0,0,1-9.6-2.673l-3.917,5.261.078.064c2.993,2.318,8.247,3.811,13.387,3.811,4.408,0,8.048-1.052,10.529-3.05a9.154,9.154,0,0,0,3.5-7.252C1673.89,140.138,1667.22,138.609,1661.87,137.387Z" transform="translate(-1529.349 -123.544)"/></svg>