<svg xmlns="http://www.w3.org/2000/svg" viewBox="0 0 163 81.804"><defs><style>.a{fill:#12bfae;stroke:#252a2e;stroke-width:3px;}.b{fill:#fff;}.c{fill:gray;font-size:17px;font-family:Montserrat-SemiBold, Montserrat;font-weight:600;}</style></defs><g transform="translate(1.5 27.5)"><circle class="a" cx="26.402" cy="26.402" r="26.402"/><g transform="translate(9.158 10.025)"><circle class="b" cx="1.947" cy="1.947" r="1.947" transform="translate(22.579)"/><circle class="b" cx="1.649" cy="1.649" r="1.649" transform="translate(23.409 5.407)"/><circle class="b" cx="1.645" cy="1.645" r="1.645" transform="translate(27.736 6.029)"/><circle class="b" cx="1.407" cy="1.407" r="1.407" transform="translate(27.444 10.623)"/><circle class="b" cx="1.416" cy="1.416" r="1.416" transform="translate(30.894 11.946)"/><circle class="b" cx="1.441" cy="1.441" r="1.441" transform="translate(23.061 9.994)"/><circle class="b" cx="1.209" cy="1.209" r="1.209" transform="translate(22.037 13.734)"/><circle class="b" cx="1.2" cy="1.2" r="1.2" transform="translate(26.372 14.334)"/><circle class="b" cx="1.21" cy="1.21" r="1.21" transform="translate(29.816 15.648)"/><circle class="b" cx="1.021" cy="1.021" r="1.021" transform="translate(28.292 18.507)"/><circle class="b" cx="1.043" cy="1.043" r="1.043" transform="translate(24.802 17.149)"/><circle class="b" cx="1.034" cy="1.034" r="1.034" transform="translate(20.487 16.559)"/><circle class="b" cx="0.901" cy="0.901" r="0.901" transform="translate(23.018 19.16)"/><circle class="b" cx="0.909" cy="0.909" r="0.909" transform="translate(26.477 20.483)"/><circle class="b" cx="0.716" cy="0.716" r="0.716" transform="translate(24.71 21.853)"/><circle class="b" cx="0.651" cy="0.651" r="0.651" transform="translate(22.921 22.518)"/><circle class="b" cx="0.773" cy="0.773" r="0.773" transform="translate(21.186 20.5)"/><circle class="b" cx="0.899" cy="0.899" r="0.899" transform="translate(18.69 18.57)"/><circle class="b" cx="1.937" cy="1.937" r="1.937" transform="translate(24.747 27.334)"/><circle class="b" cx="1.616" cy="1.616" r="1.616" transform="translate(20.354 25.603)"/><circle class="b" cx="1.63" cy="1.63" r="1.63" transform="translate(17.657 28.967)"/><circle class="b" cx="1.412" cy="1.412" r="1.412" transform="translate(17.059 23.133)"/><circle class="b" cx="1.408" cy="1.408" r="1.408" transform="translate(14.38 26.578)"/><circle class="b" cx="1.403" cy="1.403" r="1.403" transform="translate(11.502 28.924)"/><circle class="b" cx="1.196" cy="1.196" r="1.196" transform="translate(9.296 26.28)"/><circle class="b" cx="1.198" cy="1.198" r="1.198" transform="translate(12.185 23.931)"/><circle class="b" cx="1.2" cy="1.2" r="1.2" transform="translate(14.881 20.49)"/><circle class="b" cx="1.038" cy="1.038" r="1.038" transform="translate(10.91 21.273)"/><circle class="b" cx="1.03" cy="1.03" r="1.03" transform="translate(8.041 23.624)"/><circle class="b" cx="0.891" cy="0.891" r="0.891" transform="translate(7.514 21.154)"/><circle class="b" cx="0.764" cy="0.764" r="0.764" transform="translate(7.608 18.994)"/><circle class="b" cx="0.651" cy="0.651" r="0.651" transform="translate(8.116 17.213)"/><circle class="b" cx="0.773" cy="0.773" r="0.773" transform="translate(10.483 16.647)"/><circle class="b" cx="0.901" cy="0.901" r="0.901" transform="translate(13.08 15.357)"/><circle class="b" cx="1.025" cy="1.025" r="1.025" transform="translate(13.609 17.84)"/><circle class="b" cx="0.893" cy="0.893" r="0.893" transform="translate(10.399 18.818)"/><circle class="b" cx="1.931" cy="1.931" r="1.931" transform="translate(0 15.57)"/><circle class="b" cx="1.654" cy="1.654" r="1.654" transform="translate(4.452 12.81)"/><circle class="b" cx="1.646" cy="1.646" r="1.646" transform="translate(2.824 8.767)"/><circle class="b" cx="1.411" cy="1.411" r="1.411" transform="translate(7.085 7.294)"/><circle class="b" cx="1.415" cy="1.415" r="1.415" transform="translate(8.729 11.33)"/><circle class="b" cx="1.205" cy="1.205" r="1.205" transform="translate(12.602 10.893)"/><circle class="b" cx="1.038" cy="1.038" r="1.038" transform="translate(15.937 11.225)"/><circle class="b" cx="0.874" cy="0.874" r="0.874" transform="translate(18.715 12.129)"/><circle class="b" cx="0.762" cy="0.762" r="0.762" transform="translate(19.161 9.296)"/><circle class="b" cx="0.883" cy="0.883" r="0.883" transform="translate(17.03 8.07)"/><circle class="b" cx="1.032" cy="1.032" r="1.032" transform="translate(14.298 7.183)"/><circle class="b" cx="1.206" cy="1.206" r="1.206" transform="translate(10.966 6.854)"/><circle class="b" cx="1.368" cy="1.368" r="1.368" transform="translate(6.546 3.663)"/><circle class="b" cx="1.207" cy="1.207" r="1.207" transform="translate(10.367 3.176)"/><circle class="b" cx="1.041" cy="1.041" r="1.041" transform="translate(13.7 3.509)"/><circle class="b" cx="0.876" cy="0.876" r="0.876" transform="translate(16.46 4.415)"/><circle class="b" cx="0.783" cy="0.783" r="0.783" transform="translate(18.548 5.616)"/><circle class="b" cx="0.645" cy="0.645" r="0.645" transform="translate(20.144 7.056)"/></g><text class="c" transform="translate(60.5 -11.5)"><tspan x="0" y="0">great work!</tspan></text></g></svg>