<svg xmlns="http://www.w3.org/2000/svg" viewBox="0 0 513 311"><defs><style>.a{fill:#fff;stroke:#404040;stroke-width:3px;}.b{fill:#404040;}.c{fill:#e1e1e1;}.d{fill:#68caad;}.e{fill:#e18888;}.f{stroke:none;}.g{fill:none;}</style></defs><g transform="translate(-994 -376)"><g class="a" transform="translate(994 376)"><rect class="f" width="513" height="273" rx="10"/><rect class="g" x="1.5" y="1.5" width="510" height="270" rx="8.5"/></g><rect class="b" width="127" height="30" transform="translate(1187 649)"/><rect class="b" width="223" height="8" transform="translate(1139 679)"/><rect class="b" width="34" height="242" transform="translate(1007 393)"/><rect class="c" width="224" height="242" transform="translate(1266 392)"/><rect class="c" width="182" height="21" rx="10.5" transform="translate(1048 598)"/><rect class="c" width="136" height="11" rx="5.5" transform="translate(1053 409)"/><rect class="d" width="46" height="10.401" rx="5.201" transform="translate(1278.241 528.5) rotate(-90)"/><rect class="d" width="24" height="10.401" rx="5.201" transform="translate(1297.152 485.5) rotate(-90)"/><rect class="d" width="18" height="10.401" rx="5.201" transform="translate(1316.064 469.5) rotate(-90)"/><rect class="e" width="21" height="10.401" rx="5.201" transform="translate(1334.976 487.5) rotate(-90)"/><rect class="e" width="26" height="10.401" rx="5.201" transform="translate(1353.888 505.5) rotate(-90)"/><rect class="d" width="12" height="10.401" rx="5.201" transform="translate(1372.799 487.5) rotate(-90)"/><rect class="d" width="32" height="10.401" rx="5.201" transform="translate(1391.711 483.5) rotate(-90)"/><rect class="d" width="42" height="10.401" rx="5.201" transform="translate(1410.623 469.5) rotate(-90)"/><rect class="d" width="16" height="10.401" rx="5.201" transform="translate(1430.534 435.5) rotate(-90)"/><rect class="e" width="26" height="10.401" rx="5.201" transform="translate(1450.446 457.5) rotate(-90)"/><rect class="e" width="32" height="10.401" rx="5.201" transform="translate(1467.358 482.5) rotate(-90)"/><rect class="c" width="43" height="11" rx="5.5" transform="translate(1053 440)"/><rect class="c" width="74" height="11" rx="5.5" transform="translate(1053 471)"/><rect class="c" width="102" height="11" rx="5.5" transform="translate(1053 502)"/><rect class="c" width="68" height="11" rx="5.5" transform="translate(1053 533)"/><rect class="c" width="146" height="11" rx="5.5" transform="translate(1053 564)"/><rect class="c" width="23" height="21" rx="10.5" transform="translate(1235 598)"/></g></svg>