<svg xmlns="http://www.w3.org/2000/svg" viewBox="0 0 513 311"><defs><style>.a{fill:#fff;stroke:#404040;stroke-width:3px}.b{fill:#404040}.c{fill:#e1e1e1}.d{fill:#68caad}.e{fill:#e18888}.f{stroke:none}.g{fill:none}</style></defs><g transform="translate(-994 -376)"><g class="a" transform="translate(994 376)"><rect width="513" height="273" class="f" rx="10"/><rect width="510" height="270" x="1.5" y="1.5" class="g" rx="8.5"/></g><rect width="127" height="30" class="b" transform="translate(1187 649)"/><rect width="223" height="8" class="b" transform="translate(1139 679)"/><rect width="34" height="242" class="b" transform="translate(1007 393)"/><rect width="224" height="242" class="c" transform="translate(1266 392)"/><rect width="182" height="21" class="c" rx="10.5" transform="translate(1048 598)"/><rect width="136" height="11" class="c" rx="5.5" transform="translate(1053 409)"/><rect width="46" height="10.401" class="d" rx="5.201" transform="translate(1278.241 528.5) rotate(-90)"/><rect width="24" height="10.401" class="d" rx="5.201" transform="translate(1297.152 485.5) rotate(-90)"/><rect width="18" height="10.401" class="d" rx="5.201" transform="translate(1316.064 469.5) rotate(-90)"/><rect width="21" height="10.401" class="e" rx="5.201" transform="translate(1334.976 487.5) rotate(-90)"/><rect width="26" height="10.401" class="e" rx="5.201" transform="translate(1353.888 505.5) rotate(-90)"/><rect width="12" height="10.401" class="d" rx="5.201" transform="translate(1372.799 487.5) rotate(-90)"/><rect width="32" height="10.401" class="d" rx="5.201" transform="translate(1391.711 483.5) rotate(-90)"/><rect width="42" height="10.401" class="d" rx="5.201" transform="translate(1410.623 469.5) rotate(-90)"/><rect width="16" height="10.401" class="d" rx="5.201" transform="translate(1430.534 435.5) rotate(-90)"/><rect width="26" height="10.401" class="e" rx="5.201" transform="translate(1450.446 457.5) rotate(-90)"/><rect width="32" height="10.401" class="e" rx="5.201" transform="translate(1467.358 482.5) rotate(-90)"/><rect width="43" height="11" class="c" rx="5.5" transform="translate(1053 440)"/><rect width="74" height="11" class="c" rx="5.5" transform="translate(1053 471)"/><rect width="102" height="11" class="c" rx="5.5" transform="translate(1053 502)"/><rect width="68" height="11" class="c" rx="5.5" transform="translate(1053 533)"/><rect width="146" height="11" class="c" rx="5.5" transform="translate(1053 564)"/><rect width="23" height="21" class="c" rx="10.5" transform="translate(1235 598)"/></g></svg>